<svg width="17" height="12" viewBox="0 0 17 12" fill="none" xmlns="http://www.w3.org/2000/svg">
<path d="M5.9375 11.7188L0.71875 6.53125C0.572917 6.38542 0.5 6.19792 0.5 5.96875C0.5 5.73958 0.572917 5.55208 0.71875 5.40625L1.875 4.28125C2.02083 4.11458 2.19792 4.03125 2.40625 4.03125C2.63542 4.03125 2.83333 4.11458 3 4.28125L6.5 7.78125L14 0.28125C14.1667 0.114583 14.3542 0.03125 14.5625 0.03125C14.7917 0.03125 14.9792 0.114583 15.125 0.28125L16.2812 1.40625C16.4271 1.55208 16.5 1.73958 16.5 1.96875C16.5 2.19792 16.4271 2.38542 16.2812 2.53125L7.0625 11.7188C6.91667 11.8854 6.72917 11.9688 6.5 11.9688C6.27083 11.9688 6.08333 11.8854 5.9375 11.7188Z" fill="#161A7F"/>
</svg>
