<svg width="246" height="28" viewBox="0 0 246 28" fill="none" xmlns="http://www.w3.org/2000/svg">
<g clip-path="url(#clip0_10_138)">
<rect y="16" width="26" height="12" fill="white"/>
<path d="M0 16H21C23.7614 16 26 18.2386 26 21V23C26 25.7614 23.7614 28 21 28H0V16Z" fill="#3037EF"/>
<rect y="28" width="26" height="12" transform="rotate(-90 0 28)" fill="white"/>
<path d="M0 28L-3.88359e-07 7C-4.39427e-07 4.23858 2.23858 2 5 2L7 2C9.76142 2 12 4.23858 12 7L12 28L0 28Z" fill="#3037EF"/>
<path d="M16 7C16 4.23858 18.2386 2 21 2H26V7C26 9.76142 23.7614 12 21 12H16V7Z" fill="#FF1102"/>
<line x1="14" y1="2" x2="14" y2="23" stroke="white" stroke-width="4"/>
<line x1="5" y1="14" x2="26" y2="14" stroke="white" stroke-width="4"/>
</g>
<path d="M51.14 2.96V17H47.72V8.58L44.58 17H41.82L38.66 8.56V17H35.24V2.96H39.28L43.22 12.68L47.12 2.96H51.14ZM64.1194 11.24C64.1194 11.56 64.0994 11.8933 64.0594 12.24H56.3194C56.3727 12.9333 56.5927 13.4667 56.9794 13.84C57.3794 14.2 57.866 14.38 58.4394 14.38C59.2927 14.38 59.886 14.02 60.2194 13.3H63.8594C63.6727 14.0333 63.3327 14.6933 62.8394 15.28C62.3594 15.8667 61.7527 16.3267 61.0194 16.66C60.286 16.9933 59.466 17.16 58.5594 17.16C57.466 17.16 56.4927 16.9267 55.6394 16.46C54.786 15.9933 54.1194 15.3267 53.6394 14.46C53.1594 13.5933 52.9194 12.58 52.9194 11.42C52.9194 10.26 53.1527 9.24667 53.6194 8.38C54.0994 7.51333 54.766 6.84667 55.6194 6.38C56.4727 5.91333 57.4527 5.68 58.5594 5.68C59.6394 5.68 60.5994 5.90667 61.4394 6.36C62.2794 6.81333 62.9327 7.46 63.3994 8.3C63.8794 9.14 64.1194 10.12 64.1194 11.24ZM60.6194 10.34C60.6194 9.75333 60.4194 9.28667 60.0194 8.94C59.6194 8.59333 59.1194 8.42 58.5194 8.42C57.946 8.42 57.4594 8.58667 57.0594 8.92C56.6727 9.25333 56.4327 9.72667 56.3394 10.34H60.6194ZM65.2436 11.4C65.2436 10.2533 65.4569 9.24667 65.8836 8.38C66.3236 7.51333 66.9169 6.84667 67.6636 6.38C68.4103 5.91333 69.2436 5.68 70.1636 5.68C70.8969 5.68 71.5636 5.83333 72.1636 6.14C72.7769 6.44667 73.2569 6.86 73.6036 7.38V2.2H77.0236V17H73.6036V15.4C73.2836 15.9333 72.8236 16.36 72.2236 16.68C71.6369 17 70.9503 17.16 70.1636 17.16C69.2436 17.16 68.4103 16.9267 67.6636 16.46C66.9169 15.98 66.3236 15.3067 65.8836 14.44C65.4569 13.56 65.2436 12.5467 65.2436 11.4ZM73.6036 11.42C73.6036 10.5667 73.3636 9.89333 72.8836 9.4C72.4169 8.90667 71.8436 8.66 71.1636 8.66C70.4836 8.66 69.9036 8.90667 69.4236 9.4C68.9569 9.88 68.7236 10.5467 68.7236 11.4C68.7236 12.2533 68.9569 12.9333 69.4236 13.44C69.9036 13.9333 70.4836 14.18 71.1636 14.18C71.8436 14.18 72.4169 13.9333 72.8836 13.44C73.3636 12.9467 73.6036 12.2733 73.6036 11.42ZM81.2178 4.68C80.6178 4.68 80.1245 4.50667 79.7378 4.16C79.3645 3.8 79.1778 3.36 79.1778 2.84C79.1778 2.30667 79.3645 1.86667 79.7378 1.52C80.1245 1.16 80.6178 0.979999 81.2178 0.979999C81.8045 0.979999 82.2845 1.16 82.6578 1.52C83.0445 1.86667 83.2378 2.30667 83.2378 2.84C83.2378 3.36 83.0445 3.8 82.6578 4.16C82.2845 4.50667 81.8045 4.68 81.2178 4.68ZM82.9178 5.84V17H79.4978V5.84H82.9178ZM84.7163 11.42C84.7163 10.26 84.9496 9.24667 85.4163 8.38C85.8963 7.51333 86.5563 6.84667 87.3963 6.38C88.2496 5.91333 89.2229 5.68 90.3163 5.68C91.7163 5.68 92.8829 6.04667 93.8163 6.78C94.7629 7.51333 95.3829 8.54667 95.6763 9.88H92.0363C91.7296 9.02667 91.1363 8.6 90.2563 8.6C89.6296 8.6 89.1296 8.84667 88.7563 9.34C88.3829 9.82 88.1963 10.5133 88.1963 11.42C88.1963 12.3267 88.3829 13.0267 88.7563 13.52C89.1296 14 89.6296 14.24 90.2563 14.24C91.1363 14.24 91.7296 13.8133 92.0363 12.96H95.6763C95.3829 14.2667 94.7629 15.2933 93.8163 16.04C92.8696 16.7867 91.7029 17.16 90.3163 17.16C89.2229 17.16 88.2496 16.9267 87.3963 16.46C86.5563 15.9933 85.8963 15.3267 85.4163 14.46C84.9496 13.5933 84.7163 12.58 84.7163 11.42ZM96.8256 11.4C96.8256 10.2533 97.039 9.24667 97.4656 8.38C97.9056 7.51333 98.499 6.84667 99.2456 6.38C99.9923 5.91333 100.826 5.68 101.746 5.68C102.532 5.68 103.219 5.84 103.806 6.16C104.406 6.48 104.866 6.9 105.186 7.42V5.84H108.606V17H105.186V15.42C104.852 15.94 104.386 16.36 103.786 16.68C103.199 17 102.512 17.16 101.726 17.16C100.819 17.16 99.9923 16.9267 99.2456 16.46C98.499 15.98 97.9056 15.3067 97.4656 14.44C97.039 13.56 96.8256 12.5467 96.8256 11.4ZM105.186 11.42C105.186 10.5667 104.946 9.89333 104.466 9.4C103.999 8.90667 103.426 8.66 102.746 8.66C102.066 8.66 101.486 8.90667 101.006 9.4C100.539 9.88 100.306 10.5467 100.306 11.4C100.306 12.2533 100.539 12.9333 101.006 13.44C101.486 13.9333 102.066 14.18 102.746 14.18C103.426 14.18 103.999 13.9333 104.466 13.44C104.946 12.9467 105.186 12.2733 105.186 11.42ZM114.5 7.7C114.9 7.08667 115.4 6.60667 116 6.26C116.6 5.9 117.267 5.72 118 5.72V9.34H117.06C116.207 9.34 115.567 9.52667 115.14 9.9C114.713 10.26 114.5 10.9 114.5 11.82V17H111.08V5.84H114.5V7.7ZM130.155 11.24C130.155 11.56 130.135 11.8933 130.095 12.24H122.355C122.408 12.9333 122.628 13.4667 123.015 13.84C123.415 14.2 123.901 14.38 124.475 14.38C125.328 14.38 125.921 14.02 126.255 13.3H129.895C129.708 14.0333 129.368 14.6933 128.875 15.28C128.395 15.8667 127.788 16.3267 127.055 16.66C126.321 16.9933 125.501 17.16 124.595 17.16C123.501 17.16 122.528 16.9267 121.675 16.46C120.821 15.9933 120.155 15.3267 119.675 14.46C119.195 13.5933 118.955 12.58 118.955 11.42C118.955 10.26 119.188 9.24667 119.655 8.38C120.135 7.51333 120.801 6.84667 121.655 6.38C122.508 5.91333 123.488 5.68 124.595 5.68C125.675 5.68 126.635 5.90667 127.475 6.36C128.315 6.81333 128.968 7.46 129.435 8.3C129.915 9.14 130.155 10.12 130.155 11.24ZM126.655 10.34C126.655 9.75333 126.455 9.28667 126.055 8.94C125.655 8.59333 125.155 8.42 124.555 8.42C123.981 8.42 123.495 8.58667 123.095 8.92C122.708 9.25333 122.468 9.72667 122.375 10.34H126.655ZM140.559 8.56V11.4H131.759V8.56H140.559ZM154.26 7.48C154.26 8.29333 154.074 9.04 153.7 9.72C153.327 10.3867 152.754 10.9267 151.98 11.34C151.207 11.7533 150.247 11.96 149.1 11.96H146.98V17H143.56V2.96H149.1C150.22 2.96 151.167 3.15333 151.94 3.54C152.714 3.92667 153.294 4.46 153.68 5.14C154.067 5.82 154.26 6.6 154.26 7.48ZM148.84 9.24C149.494 9.24 149.98 9.08667 150.3 8.78C150.62 8.47333 150.78 8.04 150.78 7.48C150.78 6.92 150.62 6.48667 150.3 6.18C149.98 5.87333 149.494 5.72 148.84 5.72H146.98V9.24H148.84ZM159.461 2.2V17H156.041V2.2H159.461ZM161.259 11.4C161.259 10.2533 161.473 9.24667 161.899 8.38C162.339 7.51333 162.933 6.84667 163.679 6.38C164.426 5.91333 165.259 5.68 166.179 5.68C166.966 5.68 167.653 5.84 168.239 6.16C168.839 6.48 169.299 6.9 169.619 7.42V5.84H173.039V17H169.619V15.42C169.286 15.94 168.819 16.36 168.219 16.68C167.633 17 166.946 17.16 166.159 17.16C165.253 17.16 164.426 16.9267 163.679 16.46C162.933 15.98 162.339 15.3067 161.899 14.44C161.473 13.56 161.259 12.5467 161.259 11.4ZM169.619 11.42C169.619 10.5667 169.379 9.89333 168.899 9.4C168.433 8.90667 167.859 8.66 167.179 8.66C166.499 8.66 165.919 8.90667 165.439 9.4C164.973 9.88 164.739 10.5467 164.739 11.4C164.739 12.2533 164.973 12.9333 165.439 13.44C165.919 13.9333 166.499 14.18 167.179 14.18C167.859 14.18 168.433 13.9333 168.899 13.44C169.379 12.9467 169.619 12.2733 169.619 11.42ZM182.313 5.72C183.62 5.72 184.66 6.14667 185.433 7C186.22 7.84 186.613 9 186.613 10.48V17H183.213V10.94C183.213 10.1933 183.02 9.61333 182.633 9.2C182.247 8.78667 181.727 8.58 181.073 8.58C180.42 8.58 179.9 8.78667 179.513 9.2C179.127 9.61333 178.933 10.1933 178.933 10.94V17H175.513V5.84H178.933V7.32C179.28 6.82667 179.747 6.44 180.333 6.16C180.92 5.86667 181.58 5.72 182.313 5.72ZM193.53 17.16C192.557 17.16 191.69 16.9933 190.93 16.66C190.17 16.3267 189.57 15.8733 189.13 15.3C188.69 14.7133 188.443 14.06 188.39 13.34H191.77C191.81 13.7267 191.99 14.04 192.31 14.28C192.63 14.52 193.023 14.64 193.49 14.64C193.917 14.64 194.243 14.56 194.47 14.4C194.71 14.2267 194.83 14.0067 194.83 13.74C194.83 13.42 194.663 13.1867 194.33 13.04C193.997 12.88 193.457 12.7067 192.71 12.52C191.91 12.3333 191.243 12.14 190.71 11.94C190.177 11.7267 189.717 11.4 189.33 10.96C188.943 10.5067 188.75 9.9 188.75 9.14C188.75 8.5 188.923 7.92 189.27 7.4C189.63 6.86667 190.15 6.44667 190.83 6.14C191.523 5.83333 192.343 5.68 193.29 5.68C194.69 5.68 195.79 6.02667 196.59 6.72C197.403 7.41333 197.87 8.33333 197.99 9.48H194.83C194.777 9.09333 194.603 8.78667 194.31 8.56C194.03 8.33333 193.657 8.22 193.19 8.22C192.79 8.22 192.483 8.3 192.27 8.46C192.057 8.60667 191.95 8.81333 191.95 9.08C191.95 9.4 192.117 9.64 192.45 9.8C192.797 9.96 193.33 10.12 194.05 10.28C194.877 10.4933 195.55 10.7067 196.07 10.92C196.59 11.12 197.043 11.4533 197.43 11.92C197.83 12.3733 198.037 12.9867 198.05 13.76C198.05 14.4133 197.863 15 197.49 15.52C197.13 16.0267 196.603 16.4267 195.91 16.72C195.23 17.0133 194.437 17.16 193.53 17.16Z" fill="black"/>
<path d="M35.23 27H34.474V22.752H35.476L37.534 25.908H37.546V22.752H38.302V27H37.342L35.242 23.742H35.23V27ZM43.5274 24.87C43.5274 26.202 42.5614 27.108 41.2534 27.108C39.9454 27.108 39.0214 26.208 39.0214 24.894C39.0214 23.67 39.8134 22.644 41.2954 22.644C42.6394 22.644 43.5274 23.544 43.5274 24.87ZM39.8134 24.846C39.8134 25.716 40.3594 26.424 41.2714 26.424C42.1894 26.424 42.7354 25.71 42.7354 24.846C42.7354 23.976 42.1354 23.328 41.2654 23.328C40.4014 23.328 39.8134 24.006 39.8134 24.846ZM43.8154 23.436V22.752H47.1754V23.436H45.8734V27H45.1174V23.436H43.8154ZM49.8401 27H48.9941L50.8421 22.752H51.4961L53.3261 27H52.4621L52.0661 26.028H50.2241L49.8401 27ZM51.1481 23.652L50.4821 25.38H51.8021L51.1481 23.652ZM53.7982 27V22.752H56.5402V23.436H54.5542V24.552H56.4262V25.236H54.5542V27H53.7982ZM57.2435 27V22.752H59.9855V23.436H57.9995V24.552H59.8715V25.236H57.9995V27H57.2435ZM61.4268 22.752V27H60.6708V22.752H61.4268ZM63.1148 22.752V26.316H64.9208V27H62.3588V22.752H63.1148ZM66.2081 22.752V27H65.4521V22.752H66.2081ZM67.512 27H66.666L68.514 22.752H69.168L70.998 27H70.134L69.738 26.028H67.896L67.512 27ZM68.82 23.652L68.154 25.38H69.474L68.82 23.652ZM71.0381 23.436V22.752H74.3981V23.436H73.0961V27H72.3401V23.436H71.0381ZM74.9154 27V22.752H77.7294V23.436H75.6714V24.48H77.6214V25.164H75.6714V26.316H77.8374V27H74.9154ZM78.5834 22.752H80.2754C81.3734 22.752 82.4174 23.448 82.4174 24.876C82.4174 26.382 81.1094 27 80.1854 27H78.5834V22.752ZM79.3394 26.316H79.9334C80.8394 26.316 81.6254 25.908 81.6254 24.876C81.6254 23.844 80.9594 23.436 80.0354 23.436H79.3394V26.316ZM89.1895 24.87C89.1895 26.202 88.2235 27.108 86.9155 27.108C85.6075 27.108 84.6835 26.208 84.6835 24.894C84.6835 23.67 85.4755 22.644 86.9575 22.644C88.3015 22.644 89.1895 23.544 89.1895 24.87ZM85.4755 24.846C85.4755 25.716 86.0215 26.424 86.9335 26.424C87.8515 26.424 88.3975 25.71 88.3975 24.846C88.3975 23.976 87.7975 23.328 86.9275 23.328C86.0635 23.328 85.4755 24.006 85.4755 24.846ZM90.6655 27H89.9095V22.752H91.4095C92.2255 22.752 92.9695 23.04 92.9695 23.97C92.9695 24.606 92.5855 25.038 91.9855 25.122L93.1135 27H92.2015L91.2175 25.2H90.6655V27ZM90.6655 23.4V24.552H91.2895C91.7215 24.552 92.1775 24.492 92.1775 23.964C92.1775 23.478 91.7395 23.4 91.3435 23.4H90.6655ZM95.4642 27V22.752H98.2782V23.436H96.2202V24.48H98.1702V25.164H96.2202V26.316H98.3862V27H95.4642ZM99.8882 27H99.1322V22.752H100.134L102.192 25.908H102.204V22.752H102.96V27H102L99.9002 23.742H99.8882V27ZM103.908 22.752H105.6C106.698 22.752 107.742 23.448 107.742 24.876C107.742 26.382 106.434 27 105.51 27H103.908V22.752ZM104.664 26.316H105.258C106.164 26.316 106.95 25.908 106.95 24.876C106.95 23.844 106.284 23.436 105.36 23.436H104.664V26.316ZM112.738 24.87C112.738 26.202 111.772 27.108 110.464 27.108C109.156 27.108 108.232 26.208 108.232 24.894C108.232 23.67 109.024 22.644 110.506 22.644C111.85 22.644 112.738 23.544 112.738 24.87ZM109.024 24.846C109.024 25.716 109.57 26.424 110.482 26.424C111.4 26.424 111.946 25.71 111.946 24.846C111.946 23.976 111.346 23.328 110.476 23.328C109.612 23.328 109.024 24.006 109.024 24.846ZM114.214 27H113.458V22.752H114.958C115.774 22.752 116.518 23.04 116.518 23.97C116.518 24.606 116.134 25.038 115.534 25.122L116.662 27H115.75L114.766 25.2H114.214V27ZM114.214 23.4V24.552H114.838C115.27 24.552 115.726 24.492 115.726 23.964C115.726 23.478 115.288 23.4 114.892 23.4H114.214ZM118.654 22.644C119.14 22.644 119.572 22.8 119.872 23.082L119.32 23.664C119.152 23.43 118.87 23.328 118.576 23.328C118.15 23.328 117.88 23.544 117.88 23.874C117.88 24.162 118.12 24.318 118.54 24.45C119.218 24.66 119.896 24.876 119.896 25.752C119.896 26.628 119.206 27.108 118.372 27.108C117.772 27.108 117.28 26.928 116.95 26.532L117.52 25.98C117.706 26.262 118.018 26.424 118.36 26.424C118.768 26.424 119.104 26.184 119.104 25.842C119.104 25.524 118.888 25.356 118.342 25.188C117.58 24.954 117.088 24.696 117.088 23.928C117.088 23.16 117.73 22.644 118.654 22.644ZM120.683 27V22.752H123.497V23.436H121.439V24.48H123.389V25.164H121.439V26.316H123.605V27H120.683ZM124.351 22.752H126.043C127.141 22.752 128.185 23.448 128.185 24.876C128.185 26.382 126.877 27 125.953 27H124.351V22.752ZM125.107 26.316H125.701C126.607 26.316 127.393 25.908 127.393 24.876C127.393 23.844 126.727 23.436 125.803 23.436H125.107V26.316ZM132.239 27H130.679V22.752H132.359C132.911 22.752 133.637 23.004 133.637 23.82C133.637 24.258 133.379 24.6 132.899 24.75V24.762C133.445 24.828 133.817 25.26 133.817 25.788C133.817 26.604 133.163 27 132.239 27ZM131.435 26.352H132.155C132.755 26.352 133.061 26.148 133.061 25.728C133.061 25.296 132.773 25.128 132.197 25.128H131.435V26.352ZM131.435 24.48H132.149C132.605 24.48 132.881 24.27 132.881 23.946C132.881 23.574 132.605 23.4 132.089 23.4H131.435V24.48ZM134.96 22.752L136.004 24.444L137.06 22.752H137.96L136.364 25.182V27H135.608V25.182L134.012 22.752H134.96ZM142.14 22.644C142.746 22.644 143.226 22.86 143.628 23.316L143.04 23.748C142.794 23.484 142.518 23.328 142.146 23.328C141.276 23.328 140.688 24 140.688 24.846C140.688 25.722 141.252 26.424 142.146 26.424C142.548 26.424 142.86 26.214 143.1 25.908L143.724 26.352C143.358 26.868 142.764 27.108 142.14 27.108C140.832 27.108 139.896 26.214 139.896 24.894C139.896 23.574 140.784 22.644 142.14 22.644ZM144.25 27V22.752H145.402L146.536 25.728L147.682 22.752H148.822V27H148.102V23.472H148.09L146.8 27H146.272L144.982 23.472H144.97V27H144.25ZM151.203 22.644C151.689 22.644 152.121 22.8 152.421 23.082L151.869 23.664C151.701 23.43 151.419 23.328 151.125 23.328C150.699 23.328 150.429 23.544 150.429 23.874C150.429 24.162 150.669 24.318 151.089 24.45C151.767 24.66 152.445 24.876 152.445 25.752C152.445 26.628 151.755 27.108 150.921 27.108C150.321 27.108 149.829 26.928 149.499 26.532L150.069 25.98C150.255 26.262 150.567 26.424 150.909 26.424C151.317 26.424 151.653 26.184 151.653 25.842C151.653 25.524 151.437 25.356 150.891 25.188C150.129 24.954 149.637 24.696 149.637 23.928C149.637 23.16 150.279 22.644 151.203 22.644ZM159.285 24.87C159.285 26.202 158.319 27.108 157.011 27.108C155.703 27.108 154.779 26.208 154.779 24.894C154.779 23.67 155.571 22.644 157.053 22.644C158.397 22.644 159.285 23.544 159.285 24.87ZM155.571 24.846C155.571 25.716 156.117 26.424 157.029 26.424C157.947 26.424 158.493 25.71 158.493 24.846C158.493 23.976 157.893 23.328 157.023 23.328C156.159 23.328 155.571 24.006 155.571 24.846ZM160.761 27H160.005V22.752H161.505C162.321 22.752 163.065 23.04 163.065 23.97C163.065 24.606 162.681 25.038 162.081 25.122L163.209 27H162.297L161.313 25.2H160.761V27ZM160.761 23.4V24.552H161.385C161.817 24.552 162.273 24.492 162.273 23.964C162.273 23.478 161.835 23.4 161.439 23.4H160.761ZM165.128 23.436V22.752H168.488V23.436H167.186V27H166.43V23.436H165.128ZM169.005 27V22.752H169.761V24.444H171.747V22.752H172.503V27H171.747V25.128H169.761V27H169.005ZM173.453 27V22.752H176.267V23.436H174.209V24.48H176.159V25.164H174.209V26.316H176.375V27H173.453ZM178.896 27V22.752H181.638V23.436H179.652V24.552H181.524V25.236H179.652V27H178.896ZM182.341 27V22.752H185.155V23.436H183.097V24.48H185.047V25.164H183.097V26.316H185.263V27H182.341ZM186.009 22.752H187.701C188.799 22.752 189.843 23.448 189.843 24.876C189.843 26.382 188.535 27 187.611 27H186.009V22.752ZM186.765 26.316H187.359C188.265 26.316 189.051 25.908 189.051 24.876C189.051 23.844 188.385 23.436 187.461 23.436H186.765V26.316ZM190.562 27V22.752H193.376V23.436H191.318V24.48H193.268V25.164H191.318V26.316H193.484V27H190.562ZM194.986 27H194.23V22.752H195.73C196.546 22.752 197.29 23.04 197.29 23.97C197.29 24.606 196.906 25.038 196.306 25.122L197.434 27H196.522L195.538 25.2H194.986V27ZM194.986 23.4V24.552H195.61C196.042 24.552 196.498 24.492 196.498 23.964C196.498 23.478 196.06 23.4 195.664 23.4H194.986ZM198.381 27H197.535L199.383 22.752H200.037L201.867 27H201.003L200.607 26.028H198.765L198.381 27ZM199.689 23.652L199.023 25.38H200.343L199.689 23.652ZM203.095 22.752V26.316H204.901V27H202.339V22.752H203.095ZM209.248 22.644C209.836 22.644 210.466 22.77 210.916 23.178L210.358 23.742C210.07 23.466 209.644 23.328 209.248 23.328C208.378 23.328 207.79 24 207.79 24.846C207.79 25.722 208.342 26.424 209.254 26.424C209.572 26.424 209.944 26.37 210.244 26.202V25.2H209.374V24.516H211V26.688C210.436 26.988 209.842 27.108 209.248 27.108C207.928 27.108 206.998 26.208 206.998 24.894C206.998 23.556 207.91 22.644 209.248 22.644ZM216.174 24.87C216.174 26.202 215.208 27.108 213.9 27.108C212.592 27.108 211.668 26.208 211.668 24.894C211.668 23.67 212.46 22.644 213.942 22.644C215.286 22.644 216.174 23.544 216.174 24.87ZM212.46 24.846C212.46 25.716 213.006 26.424 213.918 26.424C214.836 26.424 215.382 25.71 215.382 24.846C215.382 23.976 214.782 23.328 213.912 23.328C213.048 23.328 212.46 24.006 212.46 24.846ZM216.402 22.752H217.272L218.43 25.962L219.624 22.752H220.44L218.724 27H218.07L216.402 22.752ZM220.896 27V22.752H223.71V23.436H221.652V24.48H223.602V25.164H221.652V26.316H223.818V27H220.896ZM225.32 27H224.564V22.752H226.064C226.88 22.752 227.624 23.04 227.624 23.97C227.624 24.606 227.24 25.038 226.64 25.122L227.768 27H226.856L225.872 25.2H225.32V27ZM225.32 23.4V24.552H225.944C226.376 24.552 226.832 24.492 226.832 23.964C226.832 23.478 226.394 23.4 225.998 23.4H225.32ZM228.361 27V22.752H229.513L230.647 25.728L231.793 22.752H232.933V27H232.213V23.472H232.201L230.911 27H230.383L229.093 23.472H229.081V27H228.361ZM233.898 27V22.752H236.712V23.436H234.654V24.48H236.604V25.164H234.654V26.316H236.82V27H233.898ZM238.322 27H237.566V22.752H238.568L240.626 25.908H240.638V22.752H241.394V27H240.434L238.334 23.742H238.322V27ZM241.909 23.436V22.752H245.269V23.436H243.967V27H243.211V23.436H241.909Z" fill="black"/>
<defs>
<clipPath id="clip0_10_138">
<path d="M0 2H21C23.7614 2 26 4.23858 26 7V28H0V2Z" fill="white"/>
</clipPath>
</defs>
</svg>
